<svg width="746" height="746" viewBox="0 0 746 746" fill="none" xmlns="http://www.w3.org/2000/svg">
<g filter="url(#filter0_d)">
<circle cx="373" cy="369" r="369" fill="#8BC0CF" fill-opacity="0.46" shape-rendering="crispEdges"/>
</g>
<g filter="url(#filter1_d)">
<path d="M417.081 221.207L429.36 232.122L417.763 239.625L408.895 245.083L397.299 253.268L386.384 262.136L374.788 271.004L359.781 281.919L344.091 292.833L333.177 299.654L309.984 313.297L319.534 303.747L303.162 312.615L309.984 301.701L288.155 307.158L307.937 291.469L271.101 307.158L282.016 291.469L264.28 301.701L271.101 286.694L245.862 296.244L264.28 279.872L234.265 291.469L251.319 279.872L221.987 286.694L239.04 273.733H221.987L245.862 259.408L211.072 267.593L234.265 250.54L206.979 259.408L221.987 245.083L197.429 255.997L221.987 233.486L191.972 245.083L221.987 225.982L172.872 245.083C172.872 245.083 183.061 229.155 191.972 221.207C200.465 213.632 206.311 210.528 216.53 205.518C227.423 200.178 234.125 198.357 245.862 195.286C261.243 191.261 272.378 187.705 288.155 185.736C288.155 185.736 313.395 182.325 324.991 185.736C324.991 185.736 340.575 186.236 353.641 189.146C367.459 192.224 387.749 201.425 387.749 201.425L417.081 221.207Z" fill="#2D4679"/>
<path d="M136.036 324.212H165.369L174.237 331.033L133.308 354.226L170.826 348.769L129.897 378.784L155.819 383.559L142.176 403.341L155.819 408.798L113.525 440.177L164.687 431.991L151.044 455.866L167.415 453.138L159.229 479.06L176.965 469.509V499.524L193.337 479.06V509.756L214.483 497.478V515.213L229.491 504.299V517.942L239.041 515.213L229.491 544.546L257.459 517.942L248.591 547.956L276.559 515.213L279.97 533.631L295.659 526.81L303.845 561.599L312.03 526.81L316.806 574.56L327.038 533.631L329.766 552.732L337.952 541.817V595.025L357.052 530.221L370.695 547.956V519.988L387.067 536.36V515.213L438.228 544.546L396.617 497.478H414.353L403.438 483.835L430.724 490.656L474.382 571.15H423.903L367.284 620.946L357.052 611.396L333.177 638L267.691 586.839L257.459 576.607L243.134 574.56L224.716 576.607L201.522 580.7L214.483 571.15L126.486 526.81V547.956L83.5109 490.656L61 446.999L69.1858 397.884L98.5181 361.73L69.1858 348.769L136.036 324.212Z" fill="#FF5400"/>
<path d="M209.708 311.933L232.901 314.662L239.04 328.305L236.312 335.126L223.351 337.173L231.537 345.358L206.979 369.234L213.119 374.691L202.887 386.287L211.072 391.745L204.251 408.116V414.938L210.39 419.03L209.026 442.906L217.212 441.541V457.913L221.987 449.045L232.901 468.145L234.948 483.835L241.087 477.013L251.319 491.338L253.366 485.881L260.187 489.292L273.83 495.431L286.791 493.385L308.62 502.935L312.712 491.338L329.766 500.206L333.859 489.974L342.727 496.795L352.277 477.013L361.145 486.563L370.013 456.549L385.02 460.641L379.563 442.906L387.749 447.681V431.309L411.624 466.781L397.299 463.37L396.617 487.927L383.656 484.517L380.927 502.253L366.602 494.067L349.548 523.399L341.363 511.12L331.13 522.035L327.72 506.345L311.348 520.671L305.209 512.485L296.341 518.624L290.202 505.663L279.287 509.074L273.83 503.617L262.916 512.485L258.823 503.617L247.226 512.485L251.319 498.16L236.994 500.888L242.451 491.338L226.762 498.16L223.351 475.649L206.979 479.742L200.158 468.827L199.097 452.456H186.515L195.383 429.945L178.329 426.534L190.608 409.48L176.965 402.659L193.337 385.605L185.833 382.194L181.058 379.466L178.329 374.691L180.376 369.234L184.469 365.141L194.019 362.412L202.204 354.909L172.872 339.901L179.011 339.219L201.522 337.173L209.708 333.08L183.786 322.165L205.615 320.119L209.708 311.933Z" fill="#B20000"/>
<path d="M576.022 232.804L572.611 225.3V233.486L573.975 238.261L578.068 245.083L583.525 250.54L588.983 255.997L596.486 259.408L591.711 267.594L586.254 273.733L580.115 279.872L570.565 286.694L563.061 291.469L554.875 296.244L545.325 301.701L534.411 307.158L535.775 313.98L536.457 320.801V328.305L535.775 335.126L534.411 339.219L532.364 343.994L529.636 347.405L526.225 349.451L524.178 347.405L522.814 344.676L520.086 345.358L517.357 347.405L511.9 351.498L507.807 353.544L506.443 352.862L504.396 348.769L503.714 343.994L502.35 341.266L500.303 339.219L497.575 336.491L494.164 334.444L492.8 330.351L494.164 326.258L499.621 320.119L506.443 316.708L513.946 312.615L522.132 308.522L531 304.43L438.91 303.065L495.528 312.615L486.66 320.119L477.11 324.894L466.196 329.669L458.692 331.716L449.824 332.398H440.956L434.135 331.033L455.282 318.073L451.189 318.755L443.003 320.801L436.181 323.53L423.221 331.033L403.438 343.994L391.842 351.498L382.292 358.319L372.059 366.505L361.827 375.373L353.641 386.97L348.184 394.473L339.999 403.341L333.859 408.798H328.402L327.038 416.302L319.534 408.798L309.984 416.302V411.527L303.163 414.938L297.023 419.03L290.884 423.806L290.202 419.03L288.155 417.666L283.38 414.938L275.194 419.03L277.241 411.527L275.194 403.341L273.83 396.52V391.062L274.512 385.605L271.102 384.241L274.512 380.83L277.241 374.691L282.016 362.412L286.109 353.544L290.884 346.041L299.07 335.126L307.938 326.258L316.123 320.119L327.038 313.298L339.999 307.158L347.502 303.747L391.842 266.911L427.996 240.99L453.235 225.983L473.7 216.433L497.575 207.565L522.132 201.425L547.372 195.968L570.565 193.239L591.029 189.147L603.308 186.418L612.858 183.007L637.415 170.729L644.237 168H647.647L650.376 170.729L651.74 176.186L651.058 185.736L647.647 199.379L644.237 209.611L640.144 221.208L636.051 230.758L631.276 240.308L625.819 247.811L621.044 253.951L612.858 255.997H606.036L598.533 253.951L591.711 251.222L586.936 247.811L582.161 243.036L579.432 240.308L576.022 232.804Z" fill="#192439"/>
<path d="M254.048 320.801L251.32 313.98L305.892 318.073H307.938L297.024 330.351L288.156 341.266L282.016 351.498L277.241 362.412L272.466 374.691L262.916 386.287L269.056 391.062L273.831 411.527L272.466 417.666L271.102 423.806H286.109L288.156 431.309L305.892 421.759L309.302 426.534L320.217 419.031L324.992 431.309V421.759L331.131 423.806L336.588 411.527L347.503 408.798L348.185 403.341L377.517 374.691L384.339 414.938H377.517V434.038H372.06V440.177H361.828L359.781 458.595L351.595 453.138L339.999 476.331L333.86 468.827L319.534 484.517L307.938 473.602L290.884 481.788L277.241 468.827L264.28 473.602L260.87 464.734H247.909L251.32 449.727L231.537 434.038L236.995 421.759L221.987 416.302L236.995 401.295L226.08 396.52L234.266 386.97L221.987 369.916H231.537L242.452 362.412L234.266 353.544L245.862 347.405L242.452 341.266L251.32 339.219L247.909 330.351L254.048 320.801Z" fill="#2B4879"/>
<path d="M570.564 202.79L593.757 195.286L595.122 194.604L590.347 201.425L583.525 208.247L576.022 214.386L567.154 219.843L557.604 225.983L548.054 222.572L524.178 237.579L513.264 243.036L500.303 249.176L483.249 253.268L467.56 255.315H453.917L440.956 253.268L432.771 250.54L435.499 246.447L447.778 237.579L462.785 230.075L476.428 224.618L492.8 218.479L509.853 214.386L533.728 210.975L558.286 206.2L570.564 202.79Z" fill="white"/>
<ellipse cx="621.044" cy="202.79" rx="14.3251" ry="16.3716" fill="white"/>
<circle cx="623.09" cy="202.79" r="6.82148" fill="#172539"/>
</g>
<g filter="url(#filter2_d)">
<path d="M82.3241 545.921C84.1017 544.593 86.0792 543.569 88.2566 542.848C90.4341 542.127 92.7048 541.709 95.0688 541.594C97.4669 541.454 99.8943 541.638 102.351 542.146C104.807 542.655 107.208 543.444 109.553 544.516C111.923 545.621 114.173 547.03 116.303 548.74C118.492 550.46 120.442 552.465 122.153 554.755C124.476 557.866 125.968 560.719 126.629 563.315C127.289 565.91 127.366 568.116 126.859 569.933C126.644 570.786 126.16 571.493 125.408 572.055C124.69 572.591 123.858 572.76 122.911 572.562C121.964 572.364 121.146 571.803 120.457 570.88C120.099 570.401 119.862 569.833 119.743 569.176C119.659 568.493 119.699 567.798 119.863 567.09C120.388 564.941 120.379 562.897 119.837 560.959C119.354 559.029 118.372 557.073 116.891 555.09C115.155 552.766 113.09 550.927 110.694 549.574C108.359 548.23 105.89 547.384 103.288 547.038C100.721 546.666 98.1432 546.78 95.5564 547.381C93.0038 547.956 90.6678 549.035 88.5483 550.618C87.181 551.639 86.1076 552.84 85.3284 554.221C84.5746 555.636 84.098 557.137 83.8986 558.724C83.7589 560.319 83.9177 561.958 84.3752 563.64C84.8923 565.331 85.7382 566.962 86.9126 568.535C88.4445 570.586 90.195 572.181 92.1639 573.32C94.1328 574.458 96.0128 575.264 97.8039 575.737C99.6547 576.219 101.254 576.435 102.603 576.387C103.976 576.372 104.834 576.238 105.176 575.982C105.484 575.753 105.472 575.415 105.14 574.971L97.3654 564.562C96.7015 563.673 96.9849 562.769 98.2156 561.85C99.3778 560.982 100.291 560.992 100.955 561.881L110.797 575.059C111.538 576.05 111.856 576.904 111.752 577.621C111.674 578.372 111.293 579.003 110.609 579.513C109.891 580.049 108.875 580.436 107.56 580.672C106.28 580.883 104.808 580.944 103.144 580.855C101.54 580.775 99.7954 580.507 97.9105 580.051C96.0852 579.604 94.2561 578.973 92.423 578.159C90.6242 577.319 88.9026 576.261 87.2582 574.987C85.6051 573.772 84.1531 572.327 82.902 570.652C80.885 567.951 79.3967 565.388 78.4373 562.963C77.5121 560.512 77.0516 558.22 77.0558 556.086C77.0856 553.987 77.546 552.072 78.4369 550.342C79.3533 548.645 80.6491 547.172 82.3241 545.921Z" fill="black"/>
<path d="M113.329 602.946C112.734 603.497 112.076 603.729 111.355 603.641C110.602 603.582 109.849 603.146 109.095 602.332C108.341 601.518 107.963 600.734 107.962 599.979C107.929 599.253 108.21 598.615 108.804 598.064L134.669 574.094C135.264 573.543 135.922 573.311 136.643 573.399C137.396 573.458 138.149 573.894 138.903 574.708C139.657 575.521 140.035 576.306 140.036 577.061C140.069 577.786 139.788 578.425 139.194 578.976L113.329 602.946Z" fill="black"/>
<path d="M156.25 615.887L157.699 614.264C160.455 611.176 161.824 608.424 161.808 606.007C161.82 603.559 160.728 601.354 158.531 599.394C157.513 598.485 156.341 597.811 155.017 597.373C153.693 596.934 152.249 596.789 150.686 596.939C149.155 597.116 147.505 597.588 145.735 598.353C144.026 599.115 142.246 600.243 140.397 601.739L156.25 615.887ZM137.431 604.581C135.556 606.682 134.085 608.715 133.018 610.679C131.98 612.612 131.297 614.433 130.971 616.144C130.832 616.877 130.653 617.462 130.436 617.897C130.251 618.361 130.002 618.768 129.69 619.118C129.207 619.659 128.526 619.909 127.647 619.869C126.772 619.888 125.921 619.528 125.093 618.79C124.552 618.307 124.167 617.649 123.938 616.816C123.742 616.011 123.779 615.072 124.05 613.999C124.497 612.281 125.298 610.423 126.453 608.423C127.637 606.392 129.025 604.485 130.616 602.702C133.059 599.964 135.702 597.805 138.543 596.223C141.445 594.638 144.334 593.643 147.212 593.238C150.151 592.829 152.955 592.987 155.625 593.712C158.355 594.433 160.771 595.731 162.872 597.606C166.342 600.703 168.155 603.894 168.311 607.179C168.496 610.432 166.955 613.889 163.687 617.55L147.749 635.407C147.209 636.012 146.576 636.305 145.85 636.286C145.095 636.299 144.304 635.936 143.476 635.197C142.649 634.458 142.198 633.713 142.125 632.962C142.024 632.242 142.243 631.58 142.783 630.975L153.522 618.943L137.431 604.581Z" fill="black"/>
<path d="M179.663 655.616C180.082 655.91 180.304 656.3 180.328 656.786C180.352 657.272 180.192 657.759 179.849 658.248C179.506 658.737 179.102 659.053 178.637 659.196C178.172 659.339 177.73 659.263 177.311 658.969L165.679 650.811C162.849 648.827 161.289 646.742 160.997 644.557C160.73 642.337 161.368 640.127 162.912 637.926C163.549 637.018 164.268 636.141 165.069 635.296C165.93 634.441 166.678 633.559 167.315 632.65L179.663 615.045C180.08 614.451 180.637 614.139 181.336 614.108C182.095 614.067 182.911 614.352 183.784 614.965C184.692 615.602 185.239 616.272 185.423 616.974C185.633 617.642 185.529 618.273 185.112 618.867L171.295 638.568C170.241 640.07 169.406 641.335 168.79 642.362C168.209 643.414 167.88 644.329 167.802 645.109C167.759 645.912 167.997 646.652 168.513 647.327C169.03 648.002 169.847 648.732 170.965 649.516L179.663 655.616Z" fill="black"/>
<path d="M222.464 659.496L223.497 657.58C225.462 653.938 226.156 650.943 225.579 648.596C225.023 646.212 223.449 644.321 220.858 642.923C219.657 642.275 218.361 641.892 216.971 641.772C215.581 641.653 214.143 641.847 212.658 642.354C211.209 642.882 209.713 643.724 208.17 644.879C206.683 646.016 205.214 647.527 203.763 649.41L222.464 659.496ZM201.537 652.863C200.2 655.341 199.24 657.66 198.658 659.818C198.096 661.939 197.855 663.869 197.935 665.609C197.969 666.354 197.931 666.964 197.821 667.438C197.748 667.932 197.601 668.386 197.378 668.799C197.034 669.437 196.429 669.838 195.565 670.002C194.718 670.224 193.807 670.072 192.83 669.546C192.192 669.201 191.665 668.65 191.249 667.893C190.871 667.156 190.69 666.234 190.705 665.127C190.741 663.353 191.089 661.359 191.749 659.146C192.43 656.895 193.337 654.719 194.471 652.616C196.213 649.386 198.283 646.672 200.68 644.475C203.134 642.26 205.715 640.622 208.42 639.56C211.183 638.481 213.948 637.985 216.713 638.07C219.536 638.139 222.187 638.841 224.666 640.178C228.759 642.385 231.263 645.069 232.177 648.228C233.111 651.349 232.414 655.069 230.085 659.388L218.723 680.455C218.338 681.169 217.79 681.601 217.079 681.75C216.348 681.938 215.494 681.768 214.518 681.242C213.541 680.715 212.93 680.095 212.685 679.381C212.42 678.704 212.479 678.01 212.864 677.296L220.52 663.101L201.537 652.863Z" fill="black"/>
<path d="M237.889 688.604C237.574 689.35 237.069 689.832 236.375 690.048C235.665 690.304 234.799 690.216 233.777 689.784C232.755 689.352 232.089 688.792 231.777 688.105C231.449 687.457 231.443 686.759 231.758 686.012L245.486 653.53C245.802 652.784 246.306 652.302 247 652.086C247.71 651.83 248.576 651.918 249.598 652.35C250.62 652.782 251.287 653.341 251.598 654.029C251.926 654.677 251.933 655.375 251.617 656.121L237.889 688.604Z" fill="black"/>
<path d="M269.016 697.96C270.608 698.442 272.148 698.73 273.636 698.823C275.176 698.888 276.625 698.814 277.982 698.601C279.381 698.4 280.681 698.081 281.884 697.643C283.139 697.176 284.265 696.625 285.259 695.99C285.922 695.566 286.522 695.28 287.058 695.13C287.634 694.992 288.27 695.029 288.964 695.239C289.617 695.437 290.078 695.755 290.347 696.193C290.615 696.631 290.663 697.135 290.49 697.707C290.292 698.36 289.788 698.921 288.978 699.389C287.57 700.211 285.956 700.904 284.136 701.467C282.357 702.043 280.472 702.453 278.481 702.697C276.49 702.942 274.467 702.998 272.412 702.866C270.356 702.734 268.369 702.378 266.45 701.797C263.305 700.845 260.668 699.69 258.538 698.332C256.421 696.933 254.765 695.406 253.572 693.752C252.432 692.07 251.728 690.274 251.459 688.365C251.23 686.468 251.425 684.499 252.044 682.457C252.686 680.333 253.67 678.335 254.995 676.463C256.32 674.59 257.899 672.906 259.734 671.411C261.581 669.875 263.624 668.577 265.862 667.516C268.141 666.467 270.542 665.678 273.064 665.149C275.587 664.62 278.193 664.406 280.882 664.507C283.624 664.579 286.343 665.023 289.038 665.839C292.754 666.964 295.648 668.375 297.72 670.072C299.791 671.769 301.162 673.5 301.832 675.263C302.165 676.077 302.196 676.933 301.924 677.831C301.664 678.689 301.094 679.319 300.215 679.721C299.335 680.124 298.344 680.158 297.241 679.824C296.67 679.651 296.141 679.335 295.656 678.876C295.183 678.376 294.803 677.793 294.514 677.126C293.661 675.085 292.441 673.445 290.855 672.207C289.321 670.94 287.37 669.948 285.002 669.231C282.307 668.415 279.614 668.18 276.924 668.524C274.287 668.841 271.819 669.631 269.519 670.896C267.272 672.133 265.286 673.761 263.56 675.779C261.847 677.757 260.607 680.012 259.841 682.544C259.346 684.177 259.169 685.795 259.308 687.397C259.5 688.971 259.966 690.45 260.706 691.833C261.5 693.188 262.58 694.406 263.946 695.489C265.366 696.543 267.056 697.366 269.016 697.96Z" fill="black"/>
<path d="M334.227 693.164L334.55 691.012C335.165 686.92 334.804 683.867 333.467 681.854C332.136 679.799 330.015 678.552 327.103 678.115C325.753 677.912 324.404 677.99 323.056 678.349C321.708 678.707 320.421 679.377 319.195 680.357C318.011 681.345 316.888 682.643 315.827 684.252C314.814 685.826 313.943 687.745 313.215 690.008L334.227 693.164ZM312.29 694.011C311.872 696.796 311.754 699.302 311.937 701.53C312.127 703.716 312.554 705.614 313.218 707.224C313.503 707.914 313.674 708.5 313.73 708.983C313.829 709.473 313.844 709.95 313.774 710.414C313.667 711.131 313.234 711.713 312.477 712.16C311.755 712.656 310.846 712.821 309.749 712.657C309.031 712.549 308.349 712.209 307.701 711.637C307.096 711.072 306.613 710.266 306.252 709.219C305.685 707.538 305.338 705.544 305.209 703.238C305.087 700.89 305.204 698.534 305.559 696.172C306.104 692.543 307.132 689.289 308.643 686.409C310.202 683.494 312.075 681.079 314.261 679.163C316.496 677.212 318.929 675.809 321.56 674.953C324.239 674.061 326.971 673.824 329.756 674.242C334.355 674.933 337.62 676.61 339.55 679.273C341.486 681.893 342.09 685.63 341.361 690.482L337.806 714.152C337.685 714.954 337.316 715.546 336.698 715.928C336.073 716.352 335.212 716.481 334.115 716.316C333.018 716.152 332.234 715.775 331.761 715.186C331.282 714.64 331.103 713.966 331.224 713.164L333.619 697.215L312.29 694.011Z" fill="black"/>
<path d="M371.117 713.938C372.781 713.945 374.339 713.781 375.791 713.445C377.286 713.068 378.653 712.583 379.893 711.991C381.175 711.399 382.33 710.721 383.358 709.957C384.428 709.151 385.348 708.301 386.12 707.409C386.635 706.813 387.127 706.367 387.598 706.071C388.111 705.774 388.73 705.627 389.456 705.63C390.138 705.633 390.671 705.806 391.053 706.149C391.436 706.492 391.626 706.962 391.624 707.56C391.621 708.242 391.298 708.924 390.655 709.604C389.541 710.794 388.192 711.919 386.609 712.979C385.068 714.039 383.379 714.97 381.541 715.773C379.703 716.576 377.78 717.208 375.773 717.669C373.766 718.13 371.76 718.357 369.754 718.348C366.469 718.334 363.612 717.981 361.183 717.288C358.754 716.553 356.731 715.563 355.115 714.319C353.542 713.032 352.353 711.513 351.55 709.76C350.789 708.008 350.413 706.065 350.422 703.931C350.432 701.713 350.804 699.517 351.538 697.344C352.272 695.171 353.305 693.106 354.636 691.149C355.967 689.149 357.553 687.321 359.395 685.665C361.279 684.009 363.354 682.566 365.621 681.339C367.887 680.111 370.323 679.161 372.929 678.489C375.577 677.775 378.309 677.424 381.125 677.435C385.008 677.452 388.185 677.977 390.655 679.011C393.125 680.046 394.933 681.312 396.079 682.81C396.631 683.495 396.905 684.307 396.901 685.245C396.897 686.141 396.531 686.908 395.803 687.545C395.075 688.182 394.135 688.498 392.983 688.493C392.386 688.491 391.789 688.339 391.193 688.038C390.597 687.694 390.066 687.244 389.599 686.687C388.198 684.974 386.56 683.752 384.686 683.018C382.855 682.243 380.702 681.85 378.227 681.839C375.411 681.828 372.763 682.371 370.284 683.47C367.848 684.527 365.708 685.99 363.866 687.859C362.066 689.687 360.628 691.814 359.551 694.241C358.474 696.626 357.93 699.141 357.919 701.787C357.912 703.493 358.204 705.095 358.795 706.59C359.429 708.044 360.299 709.327 361.403 710.441C362.551 711.513 363.934 712.372 365.553 713.019C367.214 713.623 369.069 713.929 371.117 713.938Z" fill="black"/>
<path d="M432.239 690.708L431.933 688.554C431.353 684.456 430.134 681.633 428.278 680.087C426.415 678.497 424.026 677.909 421.111 678.322C419.76 678.514 418.489 678.974 417.299 679.703C416.11 680.431 415.068 681.441 414.173 682.731C413.321 684.015 412.616 685.58 412.059 687.426C411.538 689.223 411.252 691.311 411.201 693.688L432.239 690.708ZM411.458 697.789C411.853 700.577 412.457 703.012 413.269 705.095C414.075 707.135 415.026 708.832 416.123 710.185C416.593 710.765 416.924 711.278 417.117 711.725C417.352 712.165 417.502 712.618 417.568 713.083C417.669 713.801 417.421 714.483 416.823 715.127C416.273 715.809 415.449 716.227 414.351 716.383C413.632 716.484 412.881 716.354 412.097 715.991C411.356 715.622 410.663 714.987 410.018 714.088C408.994 712.638 408.091 710.827 407.309 708.654C406.521 706.438 405.96 704.148 405.625 701.782C405.11 698.149 405.165 694.737 405.791 691.546C406.452 688.306 407.557 685.457 409.104 682.996C410.688 680.488 412.618 678.448 414.895 676.876C417.208 675.255 419.759 674.248 422.547 673.853C427.151 673.2 430.759 673.875 433.369 675.875C435.974 677.833 437.62 681.241 438.308 686.099L441.665 709.799C441.779 710.601 441.594 711.274 441.111 711.816C440.633 712.401 439.845 712.771 438.747 712.927C437.649 713.082 436.789 712.946 436.168 712.516C435.553 712.13 435.189 711.535 435.075 710.732L432.813 694.764L411.458 697.789Z" fill="black"/>
<path d="M453.572 674.591C454.869 678.924 456.443 682.755 458.294 686.084C460.133 689.372 462.096 692.091 464.183 694.241C466.27 696.392 468.417 697.903 470.624 698.775C472.83 699.647 474.937 699.793 476.946 699.212C478.421 698.786 479.682 698.155 480.729 697.319C481.804 696.431 482.619 695.329 483.171 694.015C483.765 692.688 484.044 691.12 484.009 689.309C484.015 687.486 483.686 685.427 483.023 683.132C482.276 680.55 481.082 678.03 479.439 675.574C477.784 673.077 475.717 670.765 473.237 668.64C472.402 667.904 471.811 667.32 471.464 666.887C471.105 666.413 470.873 665.992 470.766 665.623C470.564 664.926 470.741 664.231 471.296 663.538C471.85 662.845 472.558 662.374 473.419 662.125C474.197 661.9 474.953 661.903 475.687 662.135C476.42 662.367 477.509 662.985 478.954 663.989C481.116 665.629 483.074 667.794 484.829 670.485C486.584 673.175 487.965 676.262 488.973 679.746C489.719 682.329 489.994 684.892 489.797 687.436C489.6 689.98 488.992 692.332 487.973 694.492C486.983 696.599 485.612 698.461 483.858 700.079C482.093 701.655 480.022 702.787 477.645 703.474C473.792 704.588 470.181 704.233 466.811 702.409C463.47 700.532 460.703 697.335 458.508 692.817L462.081 705.175C462.306 705.954 462.218 706.646 461.815 707.251C461.424 707.897 460.737 708.362 459.754 708.646C458.77 708.931 457.941 708.904 457.265 708.566C456.602 708.269 456.158 707.732 455.933 706.953L446.139 673.076C445.914 672.297 446.002 671.606 446.405 671.001C446.796 670.355 447.524 669.878 448.589 669.57C449.655 669.262 450.526 669.276 451.201 669.614C451.864 669.911 452.308 670.449 452.533 671.228L453.572 674.591Z" fill="black"/>
<path d="M537.73 677.085C538.063 677.824 538.073 678.522 537.76 679.178C537.465 679.872 536.812 680.448 535.801 680.904C534.789 681.36 533.926 681.468 533.21 681.229C532.511 681.03 531.995 680.56 531.662 679.821L524.56 664.068L505.598 672.617L512.7 688.37C513.033 689.109 513.043 689.806 512.73 690.462C512.435 691.157 511.782 691.732 510.771 692.188C509.759 692.644 508.896 692.752 508.18 692.514C507.481 692.314 506.965 691.844 506.632 691.105L492.139 658.957C491.806 658.218 491.795 657.521 492.108 656.865C492.403 656.17 493.057 655.595 494.068 655.139C495.079 654.683 495.943 654.574 496.659 654.813C497.358 655.013 497.873 655.483 498.207 656.222L503.914 668.882L522.877 660.334L517.169 647.673C516.835 646.934 516.825 646.237 517.138 645.581C517.433 644.886 518.087 644.311 519.098 643.855C520.109 643.399 520.973 643.29 521.689 643.529C522.387 643.729 522.903 644.198 523.237 644.937L537.73 677.085Z" fill="black"/>
<path d="M554.059 670.18C553.097 670.731 552.268 670.959 551.575 670.864C550.898 670.711 550.389 670.338 550.05 669.745L549.033 667.968C548.694 667.375 548.641 666.767 548.874 666.142C549.122 665.459 549.728 664.842 550.69 664.292C551.653 663.741 552.474 663.542 553.151 663.695C553.807 663.811 554.305 664.165 554.644 664.758L555.661 666.535C556 667.128 556.064 667.755 555.852 668.417C555.62 669.041 555.022 669.629 554.059 670.18Z" fill="black"/>
<path d="M582.574 647.475C583.923 646.5 585.085 645.45 586.061 644.324C587.047 643.138 587.866 641.941 588.52 640.732C589.207 639.499 589.742 638.271 590.122 637.048C590.512 635.767 590.756 634.538 590.854 633.362C590.919 632.578 591.055 631.927 591.26 631.41C591.5 630.868 591.914 630.385 592.502 629.96C593.056 629.561 593.588 629.387 594.099 629.439C594.61 629.49 595.041 629.758 595.391 630.243C595.79 630.796 595.931 631.537 595.812 632.465C595.612 634.083 595.184 635.787 594.529 637.576C593.909 639.34 593.092 641.087 592.08 642.819C591.067 644.55 589.885 646.193 588.535 647.748C587.184 649.303 585.696 650.667 584.07 651.841C581.407 653.765 578.89 655.162 576.518 656.033C574.122 656.869 571.905 657.26 569.866 657.207C567.837 657.094 565.981 656.565 564.3 655.622C562.653 654.654 561.205 653.305 559.956 651.575C558.657 649.777 557.664 647.783 556.978 645.595C556.292 643.406 555.91 641.129 555.833 638.763C555.731 636.363 555.936 633.952 556.449 631.528C556.997 629.08 557.825 626.693 558.933 624.365C560.042 622.038 561.451 619.836 563.161 617.759C564.881 615.622 566.882 613.729 569.165 612.08C572.312 609.806 575.189 608.36 577.794 607.741C580.4 607.122 582.607 607.081 584.415 607.617C585.265 607.845 585.964 608.34 586.514 609.101C587.039 609.827 587.194 610.662 586.981 611.606C586.768 612.549 586.194 613.358 585.26 614.033C584.776 614.383 584.205 614.611 583.545 614.719C582.861 614.792 582.167 614.741 581.461 614.566C579.321 614.007 577.277 613.983 575.331 614.495C573.394 614.946 571.422 615.897 569.416 617.346C567.133 618.995 565.314 620.993 563.957 623.342C562.61 625.63 561.743 628.073 561.355 630.669C560.977 633.206 561.067 635.772 561.627 638.368C562.161 640.929 563.203 643.282 564.752 645.427C565.751 646.81 566.93 647.932 568.289 648.793C569.657 649.594 571.115 650.12 572.664 650.369C574.223 650.56 575.846 650.439 577.535 650.009C579.234 649.519 580.914 648.674 582.574 647.475Z" fill="black"/>
<path d="M606.186 579.114C608.204 577.089 610.298 575.501 612.468 574.351C614.608 573.171 616.719 572.443 618.8 572.168C620.881 571.892 622.873 572.07 624.774 572.7C626.706 573.3 628.428 574.353 629.939 575.859C631.39 577.304 632.6 579.022 633.569 581.011C634.568 582.97 635.311 585.096 635.798 587.388C636.284 589.68 636.485 592.078 636.399 594.583C636.313 597.087 635.925 599.592 635.235 602.097C634.546 604.602 633.54 607.063 632.217 609.479C630.893 611.835 629.223 614.025 627.205 616.05C625.097 618.165 622.973 619.814 620.833 620.994C618.693 622.174 616.597 622.887 614.546 623.132C612.495 623.377 610.534 623.169 608.662 622.509C606.76 621.819 605.023 620.69 603.452 619.124C600.973 616.655 599.203 613.716 598.141 610.309C597.049 606.872 596.635 603.327 596.9 599.676C597.165 595.965 598.079 592.328 599.641 588.765C601.204 585.142 603.385 581.925 606.186 579.114ZM607.507 584.044C605.55 586.009 604.06 588.229 603.039 590.705C602.048 593.15 601.539 595.655 601.514 598.22C601.458 600.754 601.915 603.258 602.885 605.73C603.854 608.142 605.306 610.311 607.241 612.239C608.661 613.654 610.141 614.677 611.681 615.308C613.221 615.939 614.775 616.223 616.344 616.16C617.913 616.036 619.481 615.581 621.048 614.794C622.615 614.006 624.107 612.903 625.522 611.482C627.691 609.306 629.285 606.92 630.307 604.323C631.328 601.727 631.836 599.131 631.831 596.537C631.857 593.912 631.415 591.424 630.506 589.072C629.596 586.72 628.28 584.686 626.558 582.97C625.198 581.614 623.702 580.637 622.072 580.036C620.472 579.405 618.827 579.152 617.138 579.275C615.479 579.369 613.82 579.824 612.162 580.642C610.535 581.429 608.983 582.563 607.507 584.044Z" fill="black"/>
<path d="M634.411 559.529C635.811 560.289 637.419 560.91 639.234 561.393C641.074 561.84 642.886 562.109 644.671 562.199C646.446 562.23 648.082 562.052 649.58 561.668C651.077 561.283 652.166 560.626 652.847 559.697C653.678 558.56 654.007 557.136 653.833 555.422C653.685 553.675 653.212 551.901 652.414 550.101C651.641 548.267 650.627 546.546 649.371 544.94C648.105 543.273 646.801 541.949 645.458 540.966L642.824 539.039C642.17 538.56 641.817 537.958 641.766 537.233C641.68 536.483 641.965 535.661 642.62 534.765C643.275 533.87 643.973 533.35 644.714 533.205C645.42 533.034 646.101 533.188 646.755 533.667L675.213 554.493C675.867 554.972 676.219 555.573 676.271 556.298C676.356 557.048 676.071 557.871 675.416 558.766C674.761 559.661 674.063 560.181 673.323 560.327C672.616 560.497 671.936 560.343 671.282 559.864L654.496 547.58C655.339 548.885 656.063 550.208 656.668 551.549C657.263 552.83 657.675 554.11 657.903 555.387C658.132 556.665 658.142 557.915 657.935 559.138C657.718 560.301 657.219 561.416 656.438 562.483C655.405 563.895 654.282 564.924 653.069 565.57C651.882 566.181 650.691 566.579 649.499 566.764C648.332 566.914 647.218 566.918 646.158 566.777C645.089 566.576 644.186 566.365 643.45 566.143L658.582 577.218C659.237 577.696 659.589 578.298 659.64 579.023C659.726 579.773 659.441 580.596 658.786 581.491C658.131 582.386 657.433 582.906 656.692 583.051C655.986 583.222 655.306 583.068 654.652 582.589L626.194 561.763C625.54 561.285 625.187 560.683 625.136 559.958C625.05 559.208 625.335 558.386 625.99 557.49C626.645 556.595 627.343 556.075 628.084 555.93C628.79 555.759 629.47 555.913 630.125 556.392L634.411 559.529Z" fill="black"/>
</g>
<g filter="url(#filter3_d)">
<path d="M554.357 516.674V522.813V526.497L546.375 525.883V522.813L545.147 512.99C545.147 512.99 546.323 503.519 545.147 497.641C544.3 493.402 541.464 487.203 541.464 487.203L540.236 479.836L537.78 473.696L530.412 467.556L526.728 466.942H523.659L519.975 467.556H516.905L515.677 465.714L516.291 463.872L518.747 462.645L519.361 461.417L518.133 459.575L515.063 458.347H513.221H510.151C510.151 458.347 507.617 458.832 507.081 457.733C506.648 456.844 507.695 455.277 507.695 455.277L509.537 453.435H512.607L515.677 454.663L518.133 455.277L521.817 457.119C521.817 457.119 525.046 458.484 525.5 457.119C525.84 456.102 524.273 454.663 524.273 454.663L521.203 451.593L515.677 447.909L507.695 445.453H503.398L500.942 446.681L499.714 447.295H496.644C496.644 447.295 495.247 446.301 495.416 445.453C495.586 444.606 497.258 444.226 497.258 444.226L499.1 442.384V441.156L498.486 439.928L497.258 438.7L495.416 436.858C495.416 436.858 494.48 434.537 495.416 433.788C496.165 433.189 497.872 433.788 497.872 433.788L500.328 435.63L502.784 437.472L507.695 436.244V433.788V430.718L507.081 428.262L508.923 426.42H510.765L511.993 427.648L512.607 430.718L513.221 433.174V435.63C513.221 435.63 512.584 437.369 513.221 438.086C513.577 438.487 514.449 438.7 514.449 438.7H516.291L516.905 437.472V435.016L518.133 432.56H519.975L521.203 433.788V436.244V438.7L522.431 441.156L523.659 442.998L526.114 444.226L527.956 442.998V441.156V438.086V435.63L526.728 432.56L525.5 429.49L524.273 426.42L523.659 423.965C523.659 423.965 523.255 421.573 524.273 420.895C525.071 420.363 526.728 420.895 526.728 420.895L529.184 423.965L531.026 427.648L532.254 431.332L532.868 442.998L534.71 447.295L537.78 449.751L539.622 449.137L540.236 446.681V442.384L541.464 438.7C541.464 438.7 542.993 437.74 543.919 438.086C545.129 438.537 545.147 441.156 545.147 441.156L543.919 445.453V449.751V453.435C543.919 453.435 544.251 458.05 546.375 458.347C548.088 458.586 550.059 455.891 550.059 455.891L553.129 451.593L554.971 445.453V439.928V433.788L553.129 428.262L550.059 422.737C550.059 422.737 548.095 417.972 550.059 416.597C551.434 415.635 552.793 415.987 554.357 416.597C557.824 417.95 556.813 425.807 556.813 425.807C556.813 425.807 559.237 436.792 561.111 433.788C562.253 431.957 560.391 430.42 561.111 428.262L562.952 422.737C563.672 420.579 566.022 422.737 566.022 422.737L567.25 428.262L564.18 433.788L562.952 439.928V445.453L560.497 449.751L556.813 453.435L554.971 455.891L553.129 461.417C553.129 461.417 552.362 463.297 553.129 463.872C553.704 464.304 554.971 463.872 554.971 463.872L559.269 458.347L561.111 455.891L562.952 453.435L565.408 447.295L566.022 445.453L567.864 439.928L570.32 438.086H571.548L572.776 439.928V442.998L571.548 445.453L569.092 447.295L567.25 449.751L566.022 451.593V453.435L567.25 455.891L566.022 458.347V461.417L563.566 464.486L560.497 465.714L558.655 468.17L554.971 471.24L554.357 473.696C554.357 473.696 552.999 477.86 554.357 479.836C555.906 482.088 561.111 481.678 561.111 481.678L567.25 479.222L570.32 474.31L574.618 468.17L578.302 463.872H581.985L583.213 465.714L581.985 469.398L578.302 474.924L572.776 479.222C572.776 479.222 569.035 483.48 570.32 485.975C572.055 489.346 578.302 480.45 578.302 480.45L579.53 477.994L581.985 474.924L586.283 469.398C586.283 469.398 590.054 462.225 593.037 463.872C593.927 464.364 594.879 465.714 594.879 465.714L594.265 468.17L591.195 470.012L583.827 477.994L582.599 480.45C582.599 480.45 581.776 481.563 581.985 482.292C582.225 483.122 583.827 483.519 583.827 483.519L587.511 482.905L589.967 481.678L591.195 479.836L591.809 476.766V475.538L592.423 474.31C592.423 474.31 593.673 473.9 594.265 474.31C594.888 474.742 594.879 476.152 594.879 476.152V477.38V478.608V480.45L596.107 481.064L597.335 480.45L598.563 478.608L599.177 477.38L600.404 475.538L602.246 474.31H604.088L604.702 475.538V476.766L604.088 477.994L602.86 478.608L601.632 479.222L601.018 480.45L602.246 482.292L602.86 482.905H604.088L605.316 481.678L605.93 481.064H607.158H607.772L609 481.678V482.905L608.386 484.133L607.158 484.747H605.93L604.702 485.361L604.088 485.975V487.203L604.702 488.431L605.316 489.659L605.93 491.501L605.316 492.729H604.088L602.246 491.501L601.632 490.887L600.404 489.659L597.949 487.203L596.107 485.975L593.651 485.361H591.809H589.353L586.897 485.975L581.985 487.203C581.985 487.203 580.543 487.788 580.758 488.431C580.865 488.753 581.371 489.045 581.371 489.045L581.985 489.659L583.827 490.273L585.669 490.887L589.353 491.501H590.581L592.423 492.115L593.037 492.729L593.651 493.343L593.037 494.571H591.195L588.125 493.957L585.669 492.729H582.599C582.599 492.729 581.266 492.22 580.758 492.729C580.249 493.238 580.758 494.571 580.758 494.571L581.985 495.185L583.827 495.799C583.827 495.799 584.922 496.362 585.055 497.027C585.255 498.024 583.213 498.869 583.213 498.869H580.144L576.46 497.641L574.618 496.413H570.32H567.25L565.408 497.027L562.952 498.869C562.952 498.869 561.287 501.542 562.338 502.552C562.885 503.078 564.18 503.166 564.18 503.166L566.022 502.552L569.092 500.711H571.548C571.548 500.711 572.377 500.445 572.776 500.711C573.374 501.11 572.776 502.552 572.776 502.552L572.162 504.394L567.864 506.236L559.269 509.306L554.357 516.674Z" fill="#C7EBB4"/>
<path d="M554.524 553.167H540.964V547.583L539.369 542.798L535.381 538.81L531.393 534.821L518.631 524.452V522.06H526.607L524.214 518.869L507.464 502.119L501.083 498.131L495.5 495.738L489.917 494.94H482.738V492.548L484.333 490.952L487.524 489.357H490.714H495.5V487.762L493.905 484.571L491.512 481.381L486.726 478.19L481.143 477.393H473.964H469.976L467.583 475.798L465.988 475L465.19 472.607L465.988 470.214L469.179 469.417L473.964 470.214L477.952 471.012H480.345L481.143 468.619L480.345 465.429L467.583 453.464L464.393 449.476L465.19 447.083H467.583H469.976L472.369 451.071L473.167 448.679L472.369 443.893L464.393 435.917L462 431.131L465.19 429.536L467.583 431.929L473.167 436.714L472.369 431.131L470.774 424.75L469.976 419.964L470.774 415.179L473.167 414.381L474.762 415.976V419.964L476.357 424.75L477.952 422.357L481.143 415.179V412.786L481.94 409.595L485.131 408L488.321 409.595L489.119 414.381L487.524 416.774L485.131 418.369L480.345 428.738L477.952 436.714L476.357 443.095V447.083L477.952 452.667L481.143 455.857V451.869L480.345 449.476V445.488L482.738 443.095L485.131 443.893L486.726 448.679L485.131 459.048V463.036L486.726 467.024L489.119 470.214L493.905 474.202L490.714 468.619L488.321 465.429L487.524 463.833V461.44L488.321 459.845L490.714 461.44L492.31 463.833L494.702 467.024L495.5 464.631L496.298 460.643L497.095 458.25L499.488 456.655L501.083 459.048V463.036L499.488 466.226L497.893 469.417L497.095 473.405L498.69 478.988L505.071 486.964L515.44 494.143L512.25 486.167L513.048 484.571H514.643L517.036 486.167L528.202 506.107L531.393 508.5L533.786 509.298L537.774 508.5L535.381 506.107L532.19 502.917L530.595 501.321L529.798 498.131L532.19 497.333H535.381L534.583 495.738L525.81 483.774L523.417 482.179L520.226 481.381H517.036H514.643L513.048 479.786L514.643 476.595L517.036 475.798H521.024L519.429 472.607L517.833 470.214V467.821V466.226L519.429 463.833L521.821 465.429L522.619 467.024L524.214 470.214L525.012 471.81L527.405 473.405H530.595V471.81V469.417L531.393 465.429L533.786 463.833H535.381L536.976 464.631L537.774 467.821L536.976 471.012L535.381 474.202V476.595V478.19L536.976 481.381L538.571 478.19L539.369 476.595L540.964 474.202L543.357 475L544.155 477.393L543.357 479.786L541.762 482.179L540.964 484.571L540.167 486.964L540.964 489.357L542.56 491.75L545.75 494.143L546.548 492.548L548.94 486.167L549.738 482.179V479.786V477.393L548.94 474.202V471.012L549.738 467.821L552.131 467.024L554.524 467.821L556.119 469.417L556.917 473.405L556.119 477.393L555.321 480.583L553.726 483.774L552.131 486.964L550.536 492.548V497.333L551.333 502.917L552.929 507.702L555.321 514.881L557.714 512.488L560.107 509.298L561.702 506.107L563.298 500.524L564.095 494.94V490.952L563.298 482.976L564.893 479.786L566.488 476.595H568.881L572.071 478.19L572.869 482.179L572.071 484.571L570.476 487.762L569.679 490.952L571.274 494.94L572.869 493.345L575.262 489.357L576.06 484.571L576.857 475V467.821V463.036L576.06 459.048L574.464 455.857L572.071 452.667L571.274 451.071L569.679 448.679L568.083 445.488L567.286 443.893L565.69 439.558V436.714L566.488 434.321L568.083 431.929L570.476 431.131L572.869 431.929L574.464 435.119L575.262 439.107V442.298L576.06 445.488L578.452 448.679L580.845 447.083L581.643 444.69V441.5V439.107H582.685L584.833 439.905L587.226 441.5L588.024 443.893L588.821 447.083V449.476L588.024 453.464L586.429 455.857L584.833 458.25L584.036 460.643L583.238 463.036L582.685 466.226L582.44 467.821V469.417L584.833 470.214L586.429 469.417L588.024 467.821L588.821 466.226L589.619 463.833L591.214 461.44H592.81H595.202L596 463.036V464.631L595.202 467.024L592.81 469.417L589.619 472.607L586.429 476.595L584.036 479.786L583.238 482.976L582.44 487.762L584.036 486.167L587.226 482.976H590.417L592.012 484.571L592.81 486.964L592.012 490.155L588.821 493.345L584.833 495.738L581.643 498.131L576.857 501.321L574.464 504.512L572.071 508.5L571.274 511.166L572.071 514.083L574.464 515.679H576.857L579.25 514.881L580.845 514.083L582.44 512.488L584.036 511.166H587.226L588.024 514.881L587.226 518.869L585.631 521.262L582.44 523.655L579.25 524.452H575.262L572.071 523.655L568.881 524.452L564.893 525.25L561.702 529.238L558.512 533.226L556.917 537.214L556.119 540.405L554.524 545.19V553.167Z" fill="#94DAB6"/>
</g>
<g filter="url(#filter4_d)">
<path d="M410.5 156L409 189L429.5 191.5L432 170.5L434 160L435 156L437.5 153L446.5 147.5L450 146H452.5L458.5 145L462 147.5H467.5L470 145V141.5L468 138.5H466H463.5L461 140L460.5 137.5V136L461.5 134L462.5 132.5L464.5 131L466.5 130.5H468L470.5 131L472.5 131.5L476 132.5L479 133L481.5 132.5L483.5 131L484.5 129.5L483.5 127L482.5 125.5L480.5 124L477.5 123.5H475L472 125L470 126L468 127L464.5 128.5L461 130.5L458.5 131H456L454 130L453 129L452.5 128L458.5 123L463.5 119L468.5 115.5L473.5 113L478 111.5L483.5 110H488.5L493.5 111.5L496.5 113.5L499 113L499.5 111.5L499 108L497.5 107.5L496.5 106.5L495 104L496.5 102.5L499 100.5L500.5 98.5L502 97V95L501.5 93L499 91L496.5 90.5L495 91L494 92.5L493.5 94.5L491.5 97L488.5 97.5L486 97L483.5 96L483 94L483.5 92L484.5 89.5L485 87.5L485.5 85.5L485 83.5L484 81L482.5 79.5H479L477 80L475.5 83.5V87.5V91L474.5 95L473.5 97.5L472 99.5L470 100L469 99L468 95L467.5 92L466 89.5L463.5 90L462 92L461 96.5L460 102L458.5 106L456 108L452.5 108.5L450 106.5L448.5 102L449 97.5L451 90L452 86.5L454 82.5L456.5 78.5L457 74L455.5 70L451.5 69L448 72L445 77.5L444 87.5L443 100L442 106.5L439.5 111L434 118L433 117.5L430.5 116L429.5 115L429 112.5L429.5 108V106L429 104L428.5 102L428 101H425L423 101.5L421 103L419.5 104.5V106.5L420.5 108.5L423.5 112.5L425.5 115.5L426 119L423.5 122L420.5 127L417 137L410.5 156Z" fill="#66CD41"/>
<path d="M426.5 172L431.5 181L436 187L414.5 196.5L410.5 190.5L409.5 188.5L407 185L405.5 182.5L404 182H401.5L397 182.5H392.5L389 182L387 180L384.5 177L385.5 169.5L390 167.5H392.5L397 169L400 171L403 172L405.5 167.5V164.5L404.5 160L400 155.5L392.5 149.5L389 146L383.5 142.5L378 139L375.5 135L378 131H383.5L392 135L391.5 129.5L386 121.5L381.5 117L375.5 111.5L374 109L373 107V104.5L374.5 102H378L380.5 103L383 106L386.5 112.5L389 117L390 115L390.5 112.5V105.5L389.5 102L388 99L385 93L383.5 89L383 83L383.5 80L385.5 77L387.5 75L389.5 74.5L391.5 76.5L392.5 78.5V81.5L392 83.5L392.5 86.5L394.5 87.5L396 86.5L398.5 84L400 81L400.5 77V74L401.5 69L403 65L406 63H408.5L411 66L413 69V74.5L411 78L408.5 80.5L401.5 94.5L399 107L397.5 122L398.5 135L399 137.5L401 140.5L403 142.5L405.5 143L407 141.5V139L405.5 135.5L404.5 131V127L405.5 124L409 123L412.5 124L414.5 127V133V141.5V149.5L416.5 155.5L421 164.5L426.5 172Z" fill="#8ED535"/>
<path d="M437 183L434 187.5L420 191L419.5 188.5L418 180.5L417 177V173.5L418.5 172H420L422 173.5L423 176L424 177.5L425.5 178L427 176L427.5 173.5L427 171L426.5 168L425.5 166.5L424.5 163V160.5L425.5 157.5L427 156H428.5L430.5 156.5L432.5 158.5L433 161V164V167.5L435 168.5H437.5L440 167.5L441.5 165.5V163.5L441 162V160.5L442 159L444 158L445.5 158.5L447 160L447.5 163L447 165.5L445 170.5L451 172L453 172.5L454 173.5L453 176L451.5 177.5H449L446 177L443 178L439 180.5L437 183Z" fill="#00B54B"/>
<path d="M414.5 185.5L416 188L403.5 196.5L398.5 190.5L389.5 184L383 179.5L379 175L378.5 171.5L379 169L380.5 167.5L382.5 167H384.5L386 167.5L387.5 168.5L388.5 169.5L390 173L391.5 172.5L392 170L391.5 166.5L390 163L378 151L374.5 148L373 145V142L374 140.5L375.5 140H377.5H380L382 141.5L383 144L384 146.5L385 149L387 151L389 151.5L391 150L392 146V142.5L390.5 138L388.5 135L386.5 131L384 127.5L383.5 123.5V120L385 116.5L386.5 114L388.5 113H391L392.5 115L393.5 116.5V119L392.5 121.5V124L394 125.5L396 125L398 122.5L400 119L401 115V110.5L401.5 107L403 103.5L405.5 101H409L412 103.5L413.5 107V111L412 114L407.5 119L403 127.5L400 135L399 140L398.5 169V173.5L400 176.5L402.5 179.5L405.5 180L406.5 178.5V176L405.5 173.5L404 171.5L403.5 169V165.5L404 163.5L405.5 161.5L407.5 160H410L412 161.5L413.5 164L414.5 167.5V178.5V182.3V185.5Z" fill="#00B34D"/>
</g>
<g filter="url(#filter5_d)">
<path d="M616 411.5L614.5 416.5L578 411.5V399L580 387.5L582 378.5L582.5 370L582 362L582.5 353L587 342L589 339L591.5 335.5L593.5 331L594.5 326L595 320.5L596 316.5L597.5 314L599.5 312.5L602.5 310H605.5L609 313L610 318V323L609 329.5V335.5L616 340L620 345L623 353L621.5 363.5L616 372L610 379.5L609 384.5L610 391.5L612.5 397.5L616 404.5V411.5Z" fill="#B9D024"/>
<path d="M597.5 391.5L592 404L597 384L599 369L600 350L601 367.5L600 380.5L597.5 391.5Z" fill="#8AD635"/>
<path d="M592 406.5V417V421.5L587 420L563.5 416.5L559 404.5L557.5 401L556.5 398.5L556 395L556.5 391.5L558 389L562 382L563 379.5L562.5 376.5L559.5 372L557.5 368.5V365.5L559.5 360.5L561.5 358L563.5 356.5L564 354V351.5L562.5 348.5L560.5 343.5V341L562 338L566.5 335.5L569 333L570.5 328.5L572.5 324L574.5 321.5L577.5 319L581 320L583.5 324L586 329.5L586.5 335.5L586 341L583.5 347V352L586 356.5L589 360.5L590.5 364.5V372L588.5 379L586.5 382L586 389L592 402.5V406.5Z" fill="#8AD635"/>
<path d="M576.5 351L573 421L571 401L573 377.5L576.5 351Z" fill="#B9D024"/>
<path d="M571 404L568.5 415.5L551 413.5V412V410L552 408.5L552.5 407V405.5L551 403L550 402L548.5 399L549 395.5L549.5 393L549 388.5L548.5 386.5L546.5 385.5L545 382.5V380L545.5 378.5L546.5 377L547 375.5L546.5 373.5L545.5 372.5L544 371L543 368.5L543.5 365.5L544.5 363.5L546 362.5L546.5 361L547 358.5V354.5L549 351.5L551 351L553 351.5L556 355.5L557.5 358.5V363V367L559.5 371.5L562.5 374L565.5 378.5L566 383L565.5 386V390L568.5 393L571 396V404Z" fill="#65CE3D"/>
<path d="M560 394L564.5 414H562L553 369L555 373.5L558 383.5L560 394Z" fill="#B9D024"/>
</g>
<g filter="url(#filter6_d)">
<path d="M290.007 155L294.507 161L309.007 150L307.507 148L306.007 143.5L305.507 141L305.007 137V132.5L304.007 128.5C304.007 128.5 304.051 126.834 303.507 126C302.695 124.754 301.493 124.573 300.007 124.5C298.087 124.406 296.664 124.964 295.507 126.5C294.652 127.636 294.507 130 294.507 130L296.007 135C296.007 135 297.17 137.781 296.007 138.5C294.957 139.15 293.007 137.5 293.007 137.5L290.007 134.5L287.507 131L284.507 124.5L282.007 120.5L278.507 116.5H276.007L274.507 118L275.007 120.5L277.007 123L278.507 126C278.507 126 279.174 128.037 278.507 129C277.805 130.015 276.74 129.918 275.507 130C273.659 130.123 271.007 128.5 271.007 128.5L269.007 127.5L263.007 120.5L250.007 104.5L247.507 103L245.507 102H243.007L241.507 103.5V107L243.007 109.5L247.507 112.5L258.007 122L260.507 124.5L261.007 127.5C261.007 127.5 259.8 129.515 258.507 130C257.41 130.411 255.507 130 255.507 130L251.507 128L245.507 121L244.007 120L242.007 120.5L241.507 122L242.007 124.5L244.007 126.5C244.007 126.5 244.922 127.81 244.507 128.5C244.093 129.19 242.507 129 242.507 129L239.507 127.5L235.507 123.5L233.007 120.5L230.507 118L229.007 117L226.507 117.5L225.007 119V121L226.507 123.5L228.007 124.5L230.507 127.5L231.007 129.5L230.007 131.5L228.007 132.5H225.507L222.507 131.5C222.507 131.5 220.974 130.086 220.007 130.5C219.5 130.718 219.007 131.5 219.007 131.5C219.007 131.5 217.899 132.634 218.007 133.5C218.095 134.199 219.007 135 219.007 135L221.507 136L224.007 137L226.507 138.5C226.507 138.5 227.574 139.629 227.507 140.5C227.423 141.601 225.507 142.5 225.507 142.5L224.507 145.5V147L227.507 148L229.507 147L231.007 144L235.007 140.5L242.507 138.5L249.007 139L259.007 140.5L262.507 141L266.007 142.5C266.007 142.5 267.02 143.296 267.007 144C266.99 144.976 265.007 145.5 265.007 145.5C265.007 145.5 263.218 146.258 262.007 146.5C260.093 146.883 257.007 146.5 257.007 146.5H251.507L247.007 147L245.007 149.5V153L246.007 154L250.507 153L257.007 149C257.007 149 258.458 148.062 259.507 148C260.74 147.927 262.507 149 262.507 149L264.507 151C264.507 151 266.146 152.034 266.007 153C265.814 154.353 263.746 152.422 262.507 153C261.507 153.467 260.507 155 260.507 155C260.507 155 259.658 155.812 259.507 156.5C259.182 157.99 262.007 159.5 262.007 159.5H266.007L268.507 158L271.007 155.5L276.507 154H281.507H286.007L290.007 155Z" fill="#62CD43"/>
<path d="M303.5 144L302 177L322.5 179.5L325 158.5L327 148L328 144L330.5 141L339.5 135.5L343 134H345.5L351.5 133L355 135.5H360.5L363 133V129.5L361 126.5H359H356.5L354 128L353.5 125.5V124L354.5 122L355.5 120.5L357.5 119L359.5 118.5H361L363.5 119L365.5 119.5L369 120.5L372 121L374.5 120.5L376.5 119L377.5 117.5L376.5 115L375.5 113.5L373.5 112L370.5 111.5H368L365 113L363 114L361 115L357.5 116.5L354 118.5L351.5 119H349L347 118L346 117L345.5 116L351.5 111L356.5 107L361.5 103.5L366.5 101L371 99.5L376.5 98H381.5L386.5 99.5L389.5 101.5L392 101L392.5 99.5L392 96L390.5 95.5L389.5 94.5L388 92L389.5 90.5L392 88.5L393.5 86.5L395 85V83L394.5 81L392 79L389.5 78.5L388 79L387 80.5L386.5 82.5L384.5 85L381.5 85.5L379 85L376.5 84L376 82L376.5 80L377.5 77.5L378 75.5L378.5 73.5L378 71.5L377 69L375.5 67.5H372L370 68L368.5 71.5V75.5V79L367.5 83L366.5 85.5L365 87.5L363 88L362 87L361 83L360.5 80L359 77.5L356.5 78L355 80L354 84.5L353 90L351.5 94L349 96L345.5 96.5L343 94.5L341.5 90L342 85.5L344 78L345 74.5L347 70.5L349.5 66.5L350 62L348.5 58L344.5 57L341 60L338 65.5L337 75.5L336 88L335 94.5L332.5 99L327 106L326 105.5L323.5 104L322.5 103L322 100.5L322.5 96V94L322 92L321.5 90L321 89H318L316 89.5L314 91L312.5 92.5V94.5L313.5 96.5L316.5 100.5L318.5 103.5L319 107L316.5 110L313.5 115L310 125L303.5 144Z" fill="#66CD41"/>
<path d="M319.5 160L324.5 169L329 175L307.5 184.5L303.5 178.5L302.5 176.5L300 173L298.5 170.5L297 170H294.5L290 170.5H285.5L282 170L280 168L277.5 165L278.5 157.5L283 155.5H285.5L290 157L293 159L296 160L298.5 155.5V152.5L297.5 148L293 143.5L285.5 137.5L282 134L276.5 130.5L271 127L268.5 123L271 119H276.5L285 123L284.5 117.5L279 109.5L274.5 105L268.5 99.5L267 97L266 95V92.5L267.5 90H271L273.5 91L276 94L279.5 100.5L282 105L283 103L283.5 100.5V93.5L282.5 90L281 87L278 81L276.5 77L276 71L276.5 68L278.5 65L280.5 63L282.5 62.5L284.5 64.5L285.5 66.5V69.5L285 71.5L285.5 74.5L287.5 75.5L289 74.5L291.5 72L293 69L293.5 65V62L294.5 57L296 53L299 51H301.5L304 54L306 57V62.5L304 66L301.5 68.5L294.5 82.5L292 95L290.5 110L291.5 123L292 125.5L294 128.5L296 130.5L298.5 131L300 129.5V127L298.5 123.5L297.5 119V115L298.5 112L302 111L305.5 112L307.5 115V121V129.5V137.5L309.5 143.5L314 152.5L319.5 160Z" fill="#8ED535"/>
<path d="M330 171L327 175.5L313 179L312.5 176.5L311 168.5L310 165V161.5L311.5 160H313L315 161.5L316 164L317 165.5L318.5 166L320 164L320.5 161.5L320 159L319.5 156L318.5 154.5L317.5 151V148.5L318.5 145.5L320 144H321.5L323.5 144.5L325.5 146.5L326 149V152V155.5L328 156.5H330.5L333 155.5L334.5 153.5V151.5L334 150V148.5L335 147L337 146L338.5 146.5L340 148L340.5 151L340 153.5L338 158.5L344 160L346 160.5L347 161.5L346 164L344.5 165.5H342L339 165L336 166L332 168.5L330 171Z" fill="#00B54B"/>
<path d="M307.5 173.5L309 176L296.5 184.5L291.5 178.5L282.5 172L276 167.5L272 163L271.5 159.5L272 157L273.5 155.5L275.5 155H277.5L279 155.5L280.5 156.5L281.5 157.5L283 161L284.5 160.5L285 158L284.5 154.5L283 151L271 139L267.5 136L266 133V130L267 128.5L268.5 128H270.5H273L275 129.5L276 132L277 134.5L278 137L280 139L282 139.5L284 138L285 134V130.5L283.5 126L281.5 123L279.5 119L277 115.5L276.5 111.5V108L278 104.5L279.5 102L281.5 101H284L285.5 103L286.5 104.5V107L285.5 109.5V112L287 113.5L289 113L291 110.5L293 107L294 103V98.5L294.5 95L296 91.5L298.5 89H302L305 91.5L306.5 95V99L305 102L300.5 107L296 115.5L293 123L292 128L291.5 157V161.5L293 164.5L295.5 167.5L298.5 168L299.5 166.5V164L298.5 161.5L297 159.5L296.5 157V153.5L297 151.5L298.5 149.5L300.5 148H303L305 149.5L306.5 152L307.5 155.5V166.5V170.3V173.5Z" fill="#00B34D"/>
</g>
<path d="M107 283.5L112 291L131 290.5L132 288.5V284.5L134 280L135 275L136 270.5V265L135 261.5L134 258.5L133 252L134.5 250L136.5 246L136 240L135 235V230.5L136 226L137 224L138 220.5V216L136 207.5L133 203L128.5 198L126.5 193L126 188L127 182.5V178L124.5 167.5L122 162.5L120 161L117.5 160L113.5 160.5L111 163L109 166.5L108 170V174L107.5 177L104 179.5L101.5 181L100 184.5V188L101 191L104 196.5L105 201.5L104 205L101 208.5L99 213V217.5L101 220.5L105 224.5L108 230.5L107 235L105 238.5L102.5 242.5V246.5L105 252L108 255.5L107 260L105 266L104 270V276.5L107 283.5Z" fill="#AEE194"/>
<path d="M117 204L115 186V200.5L119.5 242.5V256V269L121.5 284L124.5 288.5V284V273.5L121.5 260.5V244.5V237L119.5 221L117 204Z" fill="#D6EE94"/>
<defs>
<filter id="filter0_d" x="0" y="0" width="746" height="746" filterUnits="userSpaceOnUse" color-interpolation-filters="sRGB">
<feFlood flood-opacity="0" result="BackgroundImageFix"/>
<feColorMatrix in="SourceAlpha" type="matrix" values="0 0 0 0 0 0 0 0 0 0 0 0 0 0 0 0 0 0 127 0" result="hardAlpha"/>
<feOffset dy="4"/>
<feGaussianBlur stdDeviation="2"/>
<feComposite in2="hardAlpha" operator="out"/>
<feColorMatrix type="matrix" values="0 0 0 0 0 0 0 0 0 0 0 0 0 0 0 0 0 0 0.25 0"/>
<feBlend mode="normal" in2="BackgroundImageFix" result="effect1_dropShadow"/>
<feBlend mode="normal" in="SourceGraphic" in2="effect1_dropShadow" result="shape"/>
</filter>
<filter id="filter1_d" x="57" y="168" width="598.74" height="478" filterUnits="userSpaceOnUse" color-interpolation-filters="sRGB">
<feFlood flood-opacity="0" result="BackgroundImageFix"/>
<feColorMatrix in="SourceAlpha" type="matrix" values="0 0 0 0 0 0 0 0 0 0 0 0 0 0 0 0 0 0 127 0" result="hardAlpha"/>
<feOffset dy="4"/>
<feGaussianBlur stdDeviation="2"/>
<feComposite in2="hardAlpha" operator="out"/>
<feColorMatrix type="matrix" values="0 0 0 0 0 0 0 0 0 0 0 0 0 0 0 0 0 0 0.25 0"/>
<feBlend mode="normal" in2="BackgroundImageFix" result="effect1_dropShadow"/>
<feBlend mode="normal" in="SourceGraphic" in2="effect1_dropShadow" result="shape"/>
</filter>
<filter id="filter2_d" x="73.0557" y="533.138" width="607.23" height="193.211" filterUnits="userSpaceOnUse" color-interpolation-filters="sRGB">
<feFlood flood-opacity="0" result="BackgroundImageFix"/>
<feColorMatrix in="SourceAlpha" type="matrix" values="0 0 0 0 0 0 0 0 0 0 0 0 0 0 0 0 0 0 127 0" result="hardAlpha"/>
<feOffset dy="4"/>
<feGaussianBlur stdDeviation="2"/>
<feComposite in2="hardAlpha" operator="out"/>
<feColorMatrix type="matrix" values="0 0 0 0 0 0 0 0 0 0 0 0 0 0 0 0 0 0 0.25 0"/>
<feBlend mode="normal" in2="BackgroundImageFix" result="effect1_dropShadow"/>
<feBlend mode="normal" in="SourceGraphic" in2="effect1_dropShadow" result="shape"/>
</filter>
<filter id="filter3_d" x="458" y="408" width="155" height="153.167" filterUnits="userSpaceOnUse" color-interpolation-filters="sRGB">
<feFlood flood-opacity="0" result="BackgroundImageFix"/>
<feColorMatrix in="SourceAlpha" type="matrix" values="0 0 0 0 0 0 0 0 0 0 0 0 0 0 0 0 0 0 127 0" result="hardAlpha"/>
<feOffset dy="4"/>
<feGaussianBlur stdDeviation="2"/>
<feComposite in2="hardAlpha" operator="out"/>
<feColorMatrix type="matrix" values="0 0 0 0 0 0 0 0 0 0 0 0 0 0 0 0 0 0 0.25 0"/>
<feBlend mode="normal" in2="BackgroundImageFix" result="effect1_dropShadow"/>
<feBlend mode="normal" in="SourceGraphic" in2="effect1_dropShadow" result="shape"/>
</filter>
<filter id="filter4_d" x="369" y="63" width="137" height="141.5" filterUnits="userSpaceOnUse" color-interpolation-filters="sRGB">
<feFlood flood-opacity="0" result="BackgroundImageFix"/>
<feColorMatrix in="SourceAlpha" type="matrix" values="0 0 0 0 0 0 0 0 0 0 0 0 0 0 0 0 0 0 127 0" result="hardAlpha"/>
<feOffset dy="4"/>
<feGaussianBlur stdDeviation="2"/>
<feComposite in2="hardAlpha" operator="out"/>
<feColorMatrix type="matrix" values="0 0 0 0 0 0 0 0 0 0 0 0 0 0 0 0 0 0 0.25 0"/>
<feBlend mode="normal" in2="BackgroundImageFix" result="effect1_dropShadow"/>
<feBlend mode="normal" in="SourceGraphic" in2="effect1_dropShadow" result="shape"/>
</filter>
<filter id="filter5_d" x="539" y="310" width="88" height="119.5" filterUnits="userSpaceOnUse" color-interpolation-filters="sRGB">
<feFlood flood-opacity="0" result="BackgroundImageFix"/>
<feColorMatrix in="SourceAlpha" type="matrix" values="0 0 0 0 0 0 0 0 0 0 0 0 0 0 0 0 0 0 127 0" result="hardAlpha"/>
<feOffset dy="4"/>
<feGaussianBlur stdDeviation="2"/>
<feComposite in2="hardAlpha" operator="out"/>
<feColorMatrix type="matrix" values="0 0 0 0 0 0 0 0 0 0 0 0 0 0 0 0 0 0 0.25 0"/>
<feBlend mode="normal" in2="BackgroundImageFix" result="effect1_dropShadow"/>
<feBlend mode="normal" in="SourceGraphic" in2="effect1_dropShadow" result="shape"/>
</filter>
<filter id="filter6_d" x="214" y="51" width="185" height="141.5" filterUnits="userSpaceOnUse" color-interpolation-filters="sRGB">
<feFlood flood-opacity="0" result="BackgroundImageFix"/>
<feColorMatrix in="SourceAlpha" type="matrix" values="0 0 0 0 0 0 0 0 0 0 0 0 0 0 0 0 0 0 127 0" result="hardAlpha"/>
<feOffset dy="4"/>
<feGaussianBlur stdDeviation="2"/>
<feComposite in2="hardAlpha" operator="out"/>
<feColorMatrix type="matrix" values="0 0 0 0 0 0 0 0 0 0 0 0 0 0 0 0 0 0 0.25 0"/>
<feBlend mode="normal" in2="BackgroundImageFix" result="effect1_dropShadow"/>
<feBlend mode="normal" in="SourceGraphic" in2="effect1_dropShadow" result="shape"/>
</filter>
</defs>
</svg>
